<svg version="1.1" id="Capa_1" xmlns="http://www.w3.org/2000/svg" xmlns:xlink="http://www.w3.org/1999/xlink" x="0px"
     y="0px" viewBox="0 0 24 24" style="enable-background:new 0 0 185.697 185.697;" xml:space="preserve" width="24"
     height="24"><g><path style="fill:#BDBDBD" d="M22.039 2.874c-1.228 -0.741 -2.718 -0.784 -3.987 -0.116L5.405 9.423c-0.959 0.505 -1.555 1.493 -1.555 2.577s0.596 2.072 1.555 2.577l12.647 6.665c0.599 0.315 1.247 0.472 1.893 0.472 0.724 0 1.445 -0.197 2.094 -0.588 1.228 -0.741 1.961 -2.039 1.961 -3.473V6.347c0 -1.434 -0.733 -2.732 -1.961 -3.473m-0.365 14.779c0 0.621 -0.305 1.161 -0.836 1.481 -0.531 0.321 -1.151 0.339 -1.7 0.049L6.489 12.519c-0.283 -0.149 -0.313 -0.412 -0.313 -0.519s0.031 -0.37 0.313 -0.519l12.647 -6.665c0.259 -0.137 0.535 -0.205 0.809 -0.205 0.306 0 0.611 0.085 0.892 0.254 0.532 0.321 0.836 0.861 0.836 1.481z"/></g></svg>