<svg fill="#000000" width="24px" height="24px" viewBox="0 -0.03 0.78 0.78" xmlns="http://www.w3.org/2000/svg">
    <path style="fill:#BDBDBD" d="m0.002 0.263 0.144 0.432c0.005 0.014 0.018 0.025 0.034 0.025h0.576q0.002 0 0.004 0l0 0 0.001 0a0.03 0.03 0 0 0 0.003 -0.001l0.001 0q0.001 0 0.003 -0.001l0.001 0q0.001 -0.001 0.003 -0.001l0.001 0a0.03 0.03 0 0 0 0.003 -0.002l0 0a0.03 0.03 0 0 0 0.003 -0.002l0 0 0.001 -0.001 0.002 -0.002 0.001 -0.001a0.03 0.03 0 0 0 0.002 -0.002l0.001 -0.001 0 0q0.001 -0.001 0.002 -0.003l0 0a0.03 0.03 0 0 0 0.002 -0.003l0 0 0 -0.001q0.001 -0.002 0.001 -0.003c0 0 0 -0.001 0 -0.001q0 -0.001 0.001 -0.003c0 0 0 -0.001 0 -0.001l0 -0.003c0 -0.001 0 -0.001 0 -0.002V0.036A0.036 0.036 0 0 0 0.756 0h-0.288a0.036 0.036 0 0 0 -0.036 0.036v0.036H0.18a0.036 0.036 0 0 0 -0.036 0.036v0.108H0.036A0.036 0.036 0 0 0 0.002 0.264l0 0zM0.72 0.072v0.39l-0.074 -0.222a0.036 0.036 0 0 0 -0.034 -0.025H0.216V0.144h0.252a0.036 0.036 0 0 0 0.036 -0.036V0.072zM0.086 0.288h0.5l0.12 0.36H0.206z"/>
</svg>