<svg fill="#000000" width="24px" height="24px" viewBox="0 0 0.96 0.96" version="1.1" xmlns="http://www.w3.org/2000/svg">
    <title>o</title>
    <path style="fill:#BDBDBD" d="M0.742 0.218a0.357 0.357 0 0 0 -0.262 -0.107h0c-0.002 0 -0.005 0 -0.007 0a0.358 0.358 0 0 0 -0.255 0.107l0 0a0.356 0.356 0 0 0 -0.107 0.262v0l0 0.007c0 0.1 0.041 0.19 0.107 0.255l0 0h0a0.358 0.358 0 0 0 0.263 0.107h0l0.004 0c0.202 0 0.365 -0.163 0.365 -0.365l0 -0.004v0l0 -0.007c0 -0.1 -0.041 -0.19 -0.107 -0.255zm-0.262 0.555 -0.007 0a0.28 0.28 0 0 1 -0.201 -0.085l0 0a0.279 0.279 0 0 1 -0.085 -0.208v0l0 -0.007A0.279 0.279 0 0 1 0.273 0.272l0 0a0.28 0.28 0 0 1 0.208 -0.085h0a0.278 0.278 0 0 1 0.207 0.085l0 0a0.28 0.28 0 0 1 0.085 0.209v0a0.28 0.28 0 0 1 -0.085 0.208l0 0a0.278 0.278 0 0 1 -0.208 0.085h0z"/>
</svg>