<svg fill="#000000" width="20px" height="20px" viewBox="-0.038 -0.063 0.6 0.6" xmlns="http://www.w3.org/2000/svg"
     preserveAspectRatio="xMinYMin" class="jam jam-refresh-reverse">
    <path style="fill:#BDBDBD" d="m0.121 0.133 0.04 -0.012a0.025 0.025 0 0 1 0.015 0.048l-0.096 0.029a0.025 0.025 0 0 1 -0.031 -0.017L0.02 0.085a0.025 0.025 0 1 1 0.048 -0.015l0.011 0.036C0.139 0.014 0.258 -0.026 0.364 0.018a0.235 0.235 0 0 1 0.135 0.146 0.025 0.025 0 1 1 -0.048 0.015A0.185 0.185 0 0 0 0.122 0.133zm0.308 0.205 -0.044 0.011a0.025 0.025 0 1 1 -0.012 -0.049l0.091 -0.023a0.025 0.025 0 0 1 0.015 -0.002 0.025 0.025 0 0 1 0.021 0.019l0.024 0.097a0.025 0.025 0 0 1 -0.049 0.012l-0.008 -0.033a0.235 0.235 0 0 1 -0.41 -0.045l-0.007 -0.016a0.025 0.025 0 1 1 0.046 -0.019l0.007 0.016a0.185 0.185 0 0 0 0.325 0.031z"/>
</svg>
