<svg fill="#000000" width="24px" height="24px" viewBox="0 0 0.72 0.72" xmlns="http://www.w3.org/2000/svg">
    <path style="fill:#BDBDBD" d="M0.373 0.123a0.03 0.03 0 0 0 -0.03 0.004L0.2 0.24H0.09a0.03 0.03 0 0 0 -0.03 0.03v0.18a0.03 0.03 0 0 0 0.03 0.03h0.11l0.142 0.113A0.03 0.03 0 0 0 0.36 0.6a0.027 0.027 0 0 0 0.013 -0.003A0.03 0.03 0 0 0 0.39 0.57V0.15a0.03 0.03 0 0 0 -0.017 -0.027M0.33 0.508l-0.101 -0.081A0.03 0.03 0 0 0 0.21 0.42H0.12v-0.12h0.09a0.03 0.03 0 0 0 0.019 -0.007L0.33 0.212Zm0.26 -0.317a0.03 0.03 0 0 0 -0.043 0.043 0.18 0.18 0 0 1 -0.011 0.265 0.03 0.03 0 0 0 0.019 0.053 0.03 0.03 0 0 0 0.019 -0.007 0.24 0.24 0 0 0 0.016 -0.354m-0.085 0.085a0.03 0.03 0 1 0 -0.043 0.043A0.06 0.06 0 0 1 0.48 0.36a0.06 0.06 0 0 1 -0.021 0.046 0.03 0.03 0 0 0 -0.004 0.042 0.03 0.03 0 0 0 0.042 0.004A0.12 0.12 0 0 0 0.54 0.36a0.122 0.122 0 0 0 -0.035 -0.085"/>
</svg>