<svg fill="#000000" width="24px" height="24px" viewBox="0 0 0.72 0.72" xmlns="http://www.w3.org/2000/svg">
    <path style="fill:#BDBDBD" d="M0.565 0.275a0.03 0.03 0 1 0 -0.043 0.043A0.06 0.06 0 0 1 0.54 0.36a0.06 0.06 0 0 1 -0.021 0.046 0.03 0.03 0 0 0 -0.004 0.042 0.03 0.03 0 0 0 0.042 0.004A0.12 0.12 0 0 0 0.6 0.36a0.122 0.122 0 0 0 -0.035 -0.085m-0.132 -0.152a0.03 0.03 0 0 0 -0.03 0.004L0.26 0.24H0.15a0.03 0.03 0 0 0 -0.03 0.03v0.18a0.03 0.03 0 0 0 0.03 0.03h0.11l0.142 0.113A0.03 0.03 0 0 0 0.42 0.6a0.027 0.027 0 0 0 0.013 -0.003A0.03 0.03 0 0 0 0.45 0.57V0.15a0.03 0.03 0 0 0 -0.017 -0.027M0.39 0.508l-0.101 -0.081A0.03 0.03 0 0 0 0.27 0.42H0.18v-0.12h0.09a0.03 0.03 0 0 0 0.019 -0.007L0.39 0.212Z"/>
</svg>